<svg xmlns="http://www.w3.org/2000/svg" viewBox="0 0 24 24" role="img" aria-label="WhatsApp">
  <path fill="#25D366" d="M20.52 3.48A11.94 11.94 0 0 0 12.03 0C5.39 0 0 5.39 0 12.03c0 2.12.55 4.2 1.6 6.04L0 24l6.1-1.59a11.96 11.96 0 0 0 5.93 1.52h.01c6.64 0 12.03-5.39 12.03-12.03 0-3.21-1.25-6.22-3.55-8.42Zm-8.49 18.42h-.01a9.9 9.9 0 0 1-5.05-1.39l-.36-.21-3.62.95.96-3.53-.23-.37A9.93 9.93 0 0 1 2.1 12.03c0-5.47 4.45-9.92 9.93-9.92 2.65 0 5.14 1.03 7 2.9a9.85 9.85 0 0 1 2.9 7.01c0 5.47-4.46 9.92-9.9 9.92Zm5.44-7.43c-.3-.15-1.77-.87-2.05-.97-.27-.1-.47-.15-.67.15-.2.3-.77.97-.95 1.17-.17.2-.35.22-.65.08-.3-.15-1.26-.46-2.4-1.46a8.98 8.98 0 0 1-1.66-2.07c-.17-.3-.02-.46.13-.6.13-.13.3-.35.45-.52.15-.17.2-.3.3-.5.1-.2.05-.37-.02-.52-.08-.15-.67-1.6-.92-2.2-.24-.58-.48-.5-.67-.5h-.57c-.2 0-.52.08-.8.37-.27.3-1.05 1.02-1.05 2.5 0 1.47 1.08 2.9 1.23 3.1.15.2 2.11 3.22 5.1 4.52.71.3 1.27.49 1.7.62.72.23 1.38.2 1.9.12.58-.08 1.77-.72 2.02-1.42.25-.7.25-1.3.17-1.42-.07-.12-.27-.2-.57-.35Z"/>
</svg>
