<svg xmlns="http://www.w3.org/2000/svg" viewBox="0 0 20 20" role="img" aria-label="WhatsApp logo">
  <circle cx="10" cy="10" r="10" fill="#25D366"/>
  <path fill="#fff" d="M13.602 2.326a7.85 7.85 0 0 0-6.71 11.927L6 18l3.84-1.007a7.85 7.85 0 0 0 3.761.964h.003a7.85 7.85 0 0 0-.002-15.7Zm4.459 11.092c-.187.524-1.104 1.004-1.524 1.072-.39.06-.88.086-1.42-.086-.328-.104-.75-.244-1.293-.477-2.274-.98-3.755-3.281-3.87-3.434-.114-.152-.926-1.232-.926-2.35 0-1.117.587-1.667.795-1.894.208-.227.453-.284.604-.284.151 0 .302.002.434.008.14.006.327-.053.51.388.187.454.636 1.57.692 1.684.056.113.093.246.019.398-.075.151-.112.246-.223.378-.113.132-.237.294-.34.395-.111.112-.227.233-.097.458.131.227.58.958 1.244 1.552.854.761 1.575.996 1.802 1.109.227.114.359.095.492-.057.132-.151.566-.661.717-.888.151-.227.302-.189.51-.113.208.075 1.318.622 1.543.736.227.113.378.17.434.264.056.093.056.547-.131 1.071Z"/>
</svg>
